<mxfile host="app.diagrams.net" modified="2023-06-25T09:56:23.587Z" agent="Mozilla/5.0 (Windows NT 10.0; Win64; x64) AppleWebKit/537.36 (KHTML, like Gecko) Chrome/114.0.0.0 Safari/537.36" etag="B69GJ4uVuMp2UlWMvUy3" version="21.5.0" type="github">
  <diagram name="第 1 页" id="mOWSm8-7hFE4kDyGciKp">
    <mxGraphModel dx="3540" dy="2671" grid="1" gridSize="10" guides="1" tooltips="1" connect="1" arrows="1" fold="1" page="1" pageScale="1" pageWidth="827" pageHeight="1169" math="0" shadow="0">
      <root>
        <mxCell id="0" />
        <mxCell id="1" parent="0" />
        <mxCell id="BOEfqCkHM9i77bK3Xwql-12" value="" style="rounded=1;whiteSpace=wrap;html=1;" vertex="1" parent="1">
          <mxGeometry x="-120" y="-320" width="1750" height="1000" as="geometry" />
        </mxCell>
        <mxCell id="BOEfqCkHM9i77bK3Xwql-2" value="" style="rounded=1;whiteSpace=wrap;html=1;" vertex="1" parent="1">
          <mxGeometry x="-10" y="180" width="690" height="270" as="geometry" />
        </mxCell>
        <mxCell id="BOEfqCkHM9i77bK3Xwql-4" value="" style="endArrow=none;html=1;rounded=0;exitX=0.073;exitY=1;exitDx=0;exitDy=0;exitPerimeter=0;entryX=0.072;entryY=-0.001;entryDx=0;entryDy=0;entryPerimeter=0;" edge="1" parent="1">
          <mxGeometry width="50" height="50" relative="1" as="geometry">
            <mxPoint x="190.68999999999988" y="450.26999999999987" as="sourcePoint" />
            <mxPoint x="189.99999999999983" y="180.00000000000003" as="targetPoint" />
          </mxGeometry>
        </mxCell>
        <mxCell id="BOEfqCkHM9i77bK3Xwql-6" value="&lt;h1&gt;包头信息&lt;/h1&gt;&lt;p&gt;f0f0：(A扫起始标识符)2字节&lt;/p&gt;&lt;p&gt;通道号:2字节&lt;/p&gt;&lt;p&gt;触发计时器:8字节&lt;/p&gt;" style="text;html=1;strokeColor=none;fillColor=none;spacing=5;spacingTop=-20;whiteSpace=wrap;overflow=hidden;rounded=0;" vertex="1" parent="1">
          <mxGeometry y="255" width="190" height="120" as="geometry" />
        </mxCell>
        <mxCell id="BOEfqCkHM9i77bK3Xwql-7" value="&lt;b&gt;&lt;font style=&quot;font-size: 24px;&quot;&gt;A扫数据&lt;/font&gt;&lt;/b&gt;" style="text;html=1;strokeColor=none;fillColor=none;align=center;verticalAlign=middle;whiteSpace=wrap;rounded=0;" vertex="1" parent="1">
          <mxGeometry x="280" y="265" width="235" height="110" as="geometry" />
        </mxCell>
        <mxCell id="BOEfqCkHM9i77bK3Xwql-8" value="" style="rounded=1;whiteSpace=wrap;html=1;" vertex="1" parent="1">
          <mxGeometry x="790" y="170" width="690" height="270" as="geometry" />
        </mxCell>
        <mxCell id="BOEfqCkHM9i77bK3Xwql-11" value="&lt;b&gt;&lt;font style=&quot;font-size: 24px;&quot;&gt;A扫数据&lt;/font&gt;&lt;/b&gt;" style="text;html=1;strokeColor=none;fillColor=none;align=center;verticalAlign=middle;whiteSpace=wrap;rounded=0;" vertex="1" parent="1">
          <mxGeometry x="1030" y="250" width="235" height="110" as="geometry" />
        </mxCell>
        <mxCell id="BOEfqCkHM9i77bK3Xwql-14" value="" style="shape=flexArrow;endArrow=classic;html=1;rounded=0;width=52.857142857142854;endSize=18.985714285714284;" edge="1" parent="1">
          <mxGeometry width="50" height="50" relative="1" as="geometry">
            <mxPoint x="790" y="-160" as="sourcePoint" />
            <mxPoint x="1010" y="60" as="targetPoint" />
          </mxGeometry>
        </mxCell>
        <mxCell id="BOEfqCkHM9i77bK3Xwql-13" value="" style="shape=flexArrow;endArrow=classic;html=1;rounded=0;width=52.857142857142854;endSize=18.985714285714284;" edge="1" parent="1">
          <mxGeometry width="50" height="50" relative="1" as="geometry">
            <mxPoint x="750" y="-160" as="sourcePoint" />
            <mxPoint x="530" y="60" as="targetPoint" />
          </mxGeometry>
        </mxCell>
        <mxCell id="BOEfqCkHM9i77bK3Xwql-15" value="&lt;font style=&quot;font-size: 24px;&quot;&gt;&lt;b&gt;第一次&lt;/b&gt;&lt;/font&gt;" style="text;html=1;strokeColor=none;fillColor=none;align=center;verticalAlign=middle;whiteSpace=wrap;rounded=0;rotation=-45;" vertex="1" parent="1">
          <mxGeometry x="480" y="-150" width="270" height="104" as="geometry" />
        </mxCell>
        <mxCell id="BOEfqCkHM9i77bK3Xwql-16" value="&lt;span style=&quot;font-size: 24px;&quot;&gt;&lt;b&gt;others&lt;/b&gt;&lt;/span&gt;" style="text;html=1;strokeColor=none;fillColor=none;align=center;verticalAlign=middle;whiteSpace=wrap;rounded=0;rotation=45;" vertex="1" parent="1">
          <mxGeometry x="780" y="-150" width="270" height="104" as="geometry" />
        </mxCell>
      </root>
    </mxGraphModel>
  </diagram>
</mxfile>
